# Blender v2.71 (sub 0) OBJ File: 'ComputerTableTEX3.blend'
# www.blender.org
o Plane
v -100.016457 -0.756083 99.888374
v 99.983543 -0.756083 99.888374
v -100.016457 -0.756083 -100.111626
v 99.983543 -0.756083 -100.111626
vn 0.000000 1.000000 0.000000
s off
o Cube.004_Cube.006
v 1.310516 0.733980 -0.608425
v 1.310518 0.733980 0.610775
v 1.259718 0.733980 0.610775
v 1.259716 0.733980 -0.608425
v 1.310517 1.546780 0.101424
v 1.310518 1.546780 0.610775
v 1.259718 1.546780 0.610775
v 1.259717 1.546780 0.101424
v -1.175871 -0.610850 0.619306
v -1.175871 -0.610850 -0.599894
v -0.566271 -0.610850 -0.599894
v -0.566271 -0.610850 0.619306
v -1.175871 -0.560050 0.619306
v -1.175871 -0.560050 -0.599894
v -0.566271 -0.560050 -0.599894
v -0.566271 -0.560050 0.619306
v -0.580197 -0.747744 0.616244
v -0.580197 -0.747744 -0.602956
v -0.529397 -0.747744 -0.602956
v -0.529397 -0.747744 0.616244
v -0.580197 0.674656 0.616244
v -0.580197 0.674656 -0.602956
v -0.529397 0.674656 -0.602956
v -0.529397 0.674656 0.616244
v 1.263526 -0.697410 0.606834
v 1.263526 -0.697410 -0.612366
v 1.314326 -0.697410 -0.612366
v 1.314326 -0.697410 0.606834
v 1.263526 0.724990 0.606834
v 1.263526 0.724990 -0.612366
v 1.314326 0.724990 -0.612366
v 1.314326 0.724990 0.606834
v 1.323205 0.686200 -0.609600
v 1.323205 0.686200 0.609600
v -1.216795 0.686200 0.609600
v -1.216795 0.686200 -0.609600
v 1.323205 0.736200 -0.609600
v 1.323204 0.736200 0.609600
v -1.216796 0.736200 0.609600
v -1.216795 0.736200 -0.609600
v -1.216149 -0.735139 0.606834
v -1.216149 -0.735139 -0.612366
v -1.165349 -0.735139 -0.612366
v -1.165349 -0.735139 0.606834
v -1.216149 0.687261 0.606834
v -1.216149 0.687261 -0.612366
v -1.165349 0.687261 -0.612366
v -1.165349 0.687261 0.606834
v 0.665754 0.733071 0.610568
v 0.665754 0.733071 0.000968
v 0.716554 0.733071 0.000968
v 0.716554 0.733071 0.610568
v 0.665754 1.545871 0.610568
v 0.665754 1.545871 0.000968
v 0.716554 1.545871 0.000968
v 0.716554 1.545871 0.610568
v 0.695466 1.077863 0.613840
v 0.695466 1.077863 0.004240
v 1.305067 1.077863 0.004240
v 1.305067 1.077863 0.613840
v 0.695466 1.128663 0.613840
v 0.695466 1.128663 0.004240
v 1.305067 1.128663 0.004240
v 1.305067 1.128663 0.613840
v -1.167363 0.733980 -0.608425
v -1.167361 0.733980 0.610775
v -1.218161 0.733980 0.610775
v -1.218163 0.733980 -0.608425
v -1.167362 1.546780 0.101424
v -1.167361 1.546780 0.610775
v -1.218161 1.546780 0.610775
v -1.218162 1.546780 0.101424
v -0.585666 0.735123 0.610568
v -0.585666 0.735123 0.000968
v -0.534866 0.735123 0.000968
v -0.534866 0.735123 0.610568
v -0.585666 1.547923 0.610568
v -0.585666 1.547923 0.000968
v -0.534866 1.547923 0.000968
v -0.534866 1.547923 0.610568
v -1.186555 1.077863 0.613840
v -1.186555 1.077863 0.004240
v -0.576955 1.077863 0.004240
v -0.576955 1.077863 0.613840
v -1.186555 1.128663 0.613840
v -1.186555 1.128663 0.004240
v -0.576955 1.128663 0.004240
v -0.576955 1.128663 0.613840
vt 1.000000 0.000000
vt 1.000000 1.000000
vt 0.000000 1.000000
vt 0.000000 0.000000
vt 0.012346 0.009259
vn 1.000000 0.000000 -0.000000
vn 0.000000 0.000000 1.000000
vn -1.000000 0.000000 0.000000
vn -0.000000 0.657800 -0.753200
vn 0.000000 -1.000000 0.000000
vn 0.000000 1.000000 -0.000000
vn 0.000000 0.000000 -1.000000
s off
f 10/1/2 6/2/2 5/3/2
f 11/1/3 7/2/3 6/3/3
f 11/4/4 12/1/4 8/2/4
f 9/1/5 5/2/5 8/3/5
f 6/1/6 7/2/6 8/3/6
f 11/1/7 10/2/7 9/3/7
f 18/1/4 14/2/4 13/3/4
f 19/1/8 15/2/8 14/3/8
f 20/1/2 16/2/2 15/3/2
f 17/1/3 13/2/3 16/3/3
f 14/1/6 15/2/6 16/3/6
f 19/1/7 18/2/7 17/3/7
f 26/1/4 22/2/4 21/3/4
f 27/1/8 23/2/8 22/3/8
f 28/1/2 24/2/2 23/3/2
f 25/1/3 21/2/3 24/3/3
f 22/1/6 23/2/6 24/3/6
f 27/1/7 26/2/7 25/3/7
f 34/1/4 30/2/4 29/3/4
f 35/1/8 31/2/8 30/3/8
f 36/1/2 32/2/2 31/3/2
f 33/1/3 29/2/3 32/3/3
f 30/1/6 31/2/6 32/3/6
f 35/1/7 34/2/7 33/3/7
f 38/1/6 39/2/6 40/3/6
f 41/4/7 44/1/7 43/2/7
f 37/4/2 41/1/2 42/2/2
f 38/4/3 42/1/3 43/2/3
f 43/1/4 44/2/4 40/3/4
f 41/4/8 37/1/8 40/2/8
f 50/1/4 46/2/4 45/3/4
f 51/1/8 47/2/8 46/3/8
f 52/1/2 48/2/2 47/3/2
f 49/1/3 45/2/3 48/3/3
f 46/1/6 47/2/6 48/3/6
f 51/1/7 50/2/7 49/3/7
f 58/1/4 54/2/4 53/3/4
f 59/1/8 55/2/8 54/3/8
f 60/1/2 56/2/2 55/3/2
f 57/1/3 53/2/3 56/3/3
f 54/1/6 55/2/6 56/3/6
f 59/1/7 58/2/7 57/3/7
f 66/1/4 62/2/4 61/3/4
f 67/1/8 63/2/8 62/3/8
f 68/1/2 64/2/2 63/3/2
f 65/1/3 61/2/3 64/3/3
f 62/1/6 63/2/6 64/3/6
f 67/1/7 66/2/7 65/3/7
f 74/1/2 70/2/2 69/3/2
f 75/1/3 71/2/3 70/3/3
f 75/4/4 76/1/4 72/2/4
f 73/1/5 69/2/5 72/3/5
f 70/1/6 71/2/6 72/3/6
f 75/1/7 74/2/7 73/3/7
f 82/1/4 78/2/4 77/3/4
f 83/1/8 79/2/8 78/3/8
f 84/1/2 80/2/2 79/3/2
f 81/1/3 77/2/3 80/3/3
f 78/1/6 79/2/6 80/3/6
f 83/1/7 82/2/7 81/3/7
f 90/1/4 86/2/4 85/3/4
f 91/1/8 87/2/8 86/3/8
f 92/1/2 88/2/2 87/3/2
f 89/1/3 85/2/3 88/3/3
f 86/1/6 87/2/6 88/3/6
f 91/1/7 90/2/7 89/3/7
f 9/5/2 10/1/2 5/3/2
f 10/4/3 11/1/3 6/3/3
f 7/3/4 11/4/4 8/2/4
f 12/4/5 9/1/5 8/3/5
f 5/4/6 6/1/6 8/3/6
f 12/4/7 11/1/7 9/3/7
f 17/4/4 18/1/4 13/3/4
f 18/4/8 19/1/8 14/3/8
f 19/4/2 20/1/2 15/3/2
f 20/4/3 17/1/3 16/3/3
f 13/4/6 14/1/6 16/3/6
f 20/4/7 19/1/7 17/3/7
f 25/4/4 26/1/4 21/3/4
f 26/4/8 27/1/8 22/3/8
f 27/4/2 28/1/2 23/3/2
f 28/4/3 25/1/3 24/3/3
f 21/4/6 22/1/6 24/3/6
f 28/4/7 27/1/7 25/3/7
f 33/4/4 34/1/4 29/3/4
f 34/4/8 35/1/8 30/3/8
f 35/4/2 36/1/2 31/3/2
f 36/4/3 33/1/3 32/3/3
f 29/4/6 30/1/6 32/3/6
f 36/4/7 35/1/7 33/3/7
f 37/4/6 38/1/6 40/3/6
f 42/3/7 41/4/7 43/2/7
f 38/3/2 37/4/2 42/2/2
f 39/3/3 38/4/3 43/2/3
f 39/4/4 43/1/4 40/3/4
f 44/3/8 41/4/8 40/2/8
f 49/4/4 50/1/4 45/3/4
f 50/4/8 51/1/8 46/3/8
f 51/4/2 52/1/2 47/3/2
f 52/4/3 49/1/3 48/3/3
f 45/4/6 46/1/6 48/3/6
f 52/4/7 51/1/7 49/3/7
f 57/4/4 58/1/4 53/3/4
f 58/4/8 59/1/8 54/3/8
f 59/4/2 60/1/2 55/3/2
f 60/4/3 57/1/3 56/3/3
f 53/4/6 54/1/6 56/3/6
f 60/4/7 59/1/7 57/3/7
f 65/4/4 66/1/4 61/3/4
f 66/4/8 67/1/8 62/3/8
f 67/4/2 68/1/2 63/3/2
f 68/4/3 65/1/3 64/3/3
f 61/4/6 62/1/6 64/3/6
f 68/4/7 67/1/7 65/3/7
f 73/4/2 74/1/2 69/3/2
f 74/4/3 75/1/3 70/3/3
f 71/3/4 75/4/4 72/2/4
f 76/4/5 73/1/5 72/3/5
f 69/4/6 70/1/6 72/3/6
f 76/4/7 75/1/7 73/3/7
f 81/4/4 82/1/4 77/3/4
f 82/4/8 83/1/8 78/3/8
f 83/4/2 84/1/2 79/3/2
f 84/4/3 81/1/3 80/3/3
f 77/4/6 78/1/6 80/3/6
f 84/4/7 83/1/7 81/3/7
f 89/4/4 90/1/4 85/3/4
f 90/4/8 91/1/8 86/3/8
f 91/4/2 92/1/2 87/3/2
f 92/4/3 89/1/3 88/3/3
f 85/4/6 86/1/6 88/3/6
f 92/4/7 91/1/7 89/3/7
o Cube.009_Cube.012
v -0.300595 0.880476 0.268746
v -0.300595 0.880476 0.217946
v 0.512205 0.880476 0.217946
v 0.512205 0.880476 0.268746
v -0.300595 1.490477 0.268746
v -0.300595 1.490477 0.217946
v 0.512205 1.490477 0.217946
v 0.512205 1.490477 0.268746
v -0.037978 0.736833 0.268744
v -0.037978 0.736833 0.218744
v 0.242022 0.736833 0.218744
v 0.242022 0.736833 0.268744
v -0.037978 0.879033 0.268744
v -0.037978 0.879033 0.218744
v 0.242022 0.879033 0.218744
v 0.242022 0.879033 0.268744
vt 0.000000 0.000000
vt 1.000000 0.000000
vt 1.000000 1.000000
vt 0.000000 1.000000
vn -1.000000 0.000000 0.000000
vn 0.000000 0.000000 -1.000000
vn 1.000000 0.000000 0.000000
vn 0.000000 0.000000 1.000000
vn 0.000000 -1.000000 0.000000
vn 0.000000 1.000000 0.000000
s off
f 97/6/9 98/7/9 94/8/9
f 99/7/10 95/8/10 94/9/10
f 99/6/11 100/7/11 96/8/11
f 97/7/12 93/8/12 96/9/12
f 94/7/13 95/8/13 96/9/13
f 99/7/14 98/8/14 97/9/14
f 106/7/9 102/8/9 101/9/9
f 107/7/10 103/8/10 102/9/10
f 108/7/11 104/8/11 103/9/11
f 105/7/12 101/8/12 104/9/12
f 102/7/13 103/8/13 104/9/13
f 107/7/14 106/8/14 105/9/14
f 93/9/9 97/6/9 94/8/9
f 98/6/10 99/7/10 94/9/10
f 95/9/11 99/6/11 96/8/11
f 100/6/12 97/7/12 96/9/12
f 93/6/13 94/7/13 96/9/13
f 100/6/14 99/7/14 97/9/14
f 105/6/9 106/7/9 101/9/9
f 106/6/10 107/7/10 102/9/10
f 107/6/11 108/7/11 103/9/11
f 108/6/12 105/7/12 104/9/12
f 101/6/13 102/7/13 104/9/13
f 108/6/14 107/7/14 105/9/14
